Coordinates
version=1
nRows=10
nColumns=40
inDegrees=yes

Units are S.I. units (second, meters, Newtons, ...)
Angles are in degrees.

endheader
time	pelvis_tilt	pelvis_list	pelvis_rotation	pelvis_tx	pelvis_ty	pelvis_tz	hip_flexion_r	hip_adduction_r	hip_rotation_r	knee_angle_r	knee_angle_r_beta	ankle_angle_r	subtalar_angle_r	mtp_angle_r	hip_flexion_l	hip_adduction_l	hip_rotation_l	knee_angle_l	knee_angle_l_beta	ankle_angle_l	subtalar_angle_l	mtp_angle_l	lumbar_extension	lumbar_bending	lumbar_rotation	arm_flex_r	arm_add_r	arm_rot_r	elbow_flex_r	pro_sup_r	wrist_flex_r	wrist_dev_r	arm_flex_l	arm_add_l	arm_rot_l	elbow_flex_l	pro_sup_l	wrist_flex_l	wrist_dev_l
     15.02000000	     -5.49976837	     -2.26177443	     -2.35325122	      1.16085800	      0.99598045	     -0.51236424	     29.50840683	      1.78927582	      4.75230908	     35.49386417	     35.49386417	      9.71240394	      0.00000000	      0.00000000	     -4.61738212	      0.30652918	     -2.46608223	     21.31643879	     21.31643879	      8.08266566	      0.00000000	      0.00000000	    -14.91036219	      2.93571777	     -3.57144305	    -15.00000005	    -19.99999993	    -15.00000004	    119.99999992	     89.99827284	      0.00000000	      0.00000000	    -14.99999991	    -19.99999953	    -14.99999998	    119.99999993	     89.99827282	      0.00000000	      0.00000000
     15.03000000	     -5.77970823	     -3.15491022	     -3.31396862	      1.16292993	      0.99972239	     -0.51094543	     29.80778902	      3.23066715	      4.67613846	     30.37730088	     30.37730088	      7.97928060	      0.00000000	      0.00000000	     -6.65037527	     -0.68556703	     -4.32923151	     19.78660534	     19.78660534	      4.24718296	      0.00000000	      0.00000000	    -14.48569602	      4.32990185	     -3.82599106	    -15.00000005	    -19.99999993	    -15.00000004	    119.99999992	     89.99827284	      0.00000000	      0.00000000	    -14.99999991	    -19.99999953	    -14.99999998	    119.99999993	     89.99827282	      0.00000000	      0.00000000
     15.04000000	     -5.99829627	     -3.75465977	     -4.14630973	      1.16501702	      1.00309472	     -0.50960716	     29.89324415	      4.38931052	      4.66735685	     25.35306835	     25.35306835	      6.13774458	      0.00000000	      0.00000000	     -8.59829223	     -1.29348823	     -5.87153505	     18.37176815	     18.37176815	      0.31801761	      0.00000000	      0.00000000	    -14.13045231	      5.44161334	     -4.21126389	    -15.00000005	    -19.99999993	    -15.00000004	    119.99999992	     89.99827284	      0.00000000	      0.00000000	    -14.99999991	    -19.99999953	    -14.99999998	    119.99999993	     89.99827282	      0.00000000	      0.00000000
     15.05000000	     -6.31016177	     -4.13041267	     -4.94983078	      1.16697664	      1.00573524	     -0.50806537	     30.08944381	      5.38510548	      4.83122143	     20.84025286	     20.84025286	      4.04106764	      0.00000000	      0.00000000	    -10.26103576	     -1.67144641	     -7.44163960	     17.26969815	     17.26969815	     -3.90727739	      0.00000000	      0.00000000	    -13.68936455	      6.29940627	     -4.49579386	    -15.00000005	    -19.99999993	    -15.00000004	    119.99999992	     89.99827284	      0.00000000	      0.00000000	    -14.99999991	    -19.99999953	    -14.99999998	    119.99999993	     89.99827282	      0.00000000	      0.00000000
     15.06000000	     -6.58799041	     -4.22893125	     -5.61394977	      1.16878116	      1.00784105	     -0.50647267	     30.22173662	      6.13672558	      5.36163464	     16.86439114	     16.86439114	      2.43080789	      0.00000000	      0.00000000	    -11.72120306	     -1.76445643	     -8.76232761	     16.44841994	     16.44841994	     -7.69149919	      0.00000000	      0.00000000	    -13.26367122	      6.78726444	     -4.79799490	    -15.00000005	    -19.99999993	    -15.00000004	    119.99999992	     89.99827284	      0.00000000	      0.00000000	    -14.99999991	    -19.99999953	    -14.99999998	    119.99999993	     89.99827282	      0.00000000	      0.00000000
     15.07000000	     -6.60112098	     -4.11045549	     -6.31006455	      1.17065130	      1.00977174	     -0.50495245	     30.16650518	      6.64675735	      5.87736239	     13.78818124	     13.78818124	      1.01326865	      0.00000000	      0.00000000	    -13.27886930	     -1.55771644	    -10.21643000	     15.75936031	     15.75936031	    -11.75790903	      0.00000000	      0.00000000	    -13.16941116	      7.04606112	     -4.96582666	    -15.00000005	    -19.99999993	    -15.00000004	    119.99999992	     89.99827284	      0.00000000	      0.00000000	    -14.99999991	    -19.99999953	    -14.99999998	    119.99999993	     89.99827282	      0.00000000	      0.00000000
     15.08000000	     -6.50934273	     -3.89152828	     -6.87130150	      1.17222092	      1.01112441	     -0.50341262	     30.02664566	      7.01090207	      6.48976512	     11.51881432	     11.51881432	      0.33718837	      0.00000000	      0.00000000	    -14.51682142	     -1.28400872	    -11.37220403	     15.84150735	     15.84150735	    -14.76544517	      0.00000000	      0.00000000	    -13.19964360	      7.09540673	     -4.97687451	    -15.00000005	    -19.99999993	    -15.00000004	    119.99999992	     89.99827284	      0.00000000	      0.00000000	    -14.99999991	    -19.99999953	    -14.99999998	    119.99999993	     89.99827282	      0.00000000	      0.00000000
     15.09000000	     -6.50954370	     -3.54634278	     -7.25127820	      1.17349280	      1.01155075	     -0.50200458	     30.01483483	      7.14679806	      6.92598847	     10.04610388	     10.04610388	      0.30013409	      0.00000000	      0.00000000	    -15.05958075	     -1.00366672	    -11.89571976	     17.01520150	     17.01520150	    -16.66884045	      0.00000000	      0.00000000	    -13.13078122	      6.99826782	     -5.09845220	    -15.00000005	    -19.99999993	    -15.00000004	    119.99999992	     89.99827284	      0.00000000	      0.00000000	    -14.99999991	    -19.99999953	    -14.99999998	    119.99999993	     89.99827282	      0.00000000	      0.00000000
     15.10000000	     -6.40954666	     -3.33780876	     -7.45426894	      1.17448132	      1.01126340	     -0.50077452	     29.91313309	      7.27208234	      6.99401283	      9.45271410	      9.45271410	      0.14758260	      0.00000000	      0.00000000	    -15.25196492	     -0.94744760	    -11.91406517	     19.00909299	     19.00909299	    -17.25496090	      0.00000000	      0.00000000	    -13.19520821	      6.98905077	     -5.12243676	    -15.00000005	    -19.99999993	    -15.00000004	    119.99999992	     89.99827284	      0.00000000	      0.00000000	    -14.99999991	    -19.99999953	    -14.99999998	    119.99999993	     89.99827282	      0.00000000	      0.00000000
     15.11000000	     -6.37178380	     -3.11237492	     -7.44438564	      1.17513115	      1.01001977	     -0.49987479	     29.84048982	      7.27382175	      6.86964900	      9.56119335	      9.56119335	      0.52267471	      0.00000000	      0.00000000	    -14.83325309	     -0.91019472	    -10.96063772	     21.87806239	     21.87806239	    -15.77049407	      0.00000000	      0.00000000	    -13.21084255	      7.00903193	     -5.20634030	    -15.00000005	    -19.99999993	    -15.00000004	    119.99999992	     89.99827284	      0.00000000	      0.00000000	    -14.99999991	    -19.99999953	    -14.99999998	    119.99999993	     89.99827282	      0.00000000	      0.00000000
